HIERARCHY
ROOT root
{
	OFFSET	0	13.1	24.9
	CHANNELS 6  Xposition Yposition Zposition Xrotation Yrotation Zrotation
	JOINT spine_1
	{
		OFFSET	0	9.99999	0
		CHANNELS 3  Xrotation Yrotation Zrotation
		JOINT spine_2
		{
			OFFSET	0	112	-10
			CHANNELS 3  Xrotation Yrotation Zrotation
			JOINT spine_3
			{
				OFFSET	0	206.5	19.3
				CHANNELS 3  Xrotation Yrotation Zrotation
				JOINT spine_4
				{
					OFFSET	0	110.4	14.6
					CHANNELS 3  Xrotation Yrotation Zrotation
					JOINT neck_1
					{
						OFFSET	0	71.8	-50.3
						CHANNELS 3  Xrotation Yrotation Zrotation
						JOINT neck_2
						{
							OFFSET	0	86.2	-25.8
							CHANNELS 3  Xrotation Yrotation Zrotation
							JOINT head_ee
							{
								OFFSET	0	179.8	-8.7
								CHANNELS 3  Xrotation Yrotation Zrotation
								End Site
								{
									OFFSET	1	0	0
								}
							}
						}
					}
					JOINT left_clavicle
					{
						OFFSET	-43.2	22.4	-70.8
						CHANNELS 3  Xrotation Yrotation Zrotation
						JOINT left_shoulder
						{
							OFFSET	-93.9	-5.79999	48.7
							CHANNELS 3  Xrotation Yrotation Zrotation
							JOINT left_elbow
							{
								OFFSET	-291.4	-30.8	15.2
								CHANNELS 3  Xrotation Yrotation Zrotation
								JOINT left_lowarm_twist
								{
									OFFSET	-110.7	-3.89999	13.6
									CHANNELS 3  Xrotation Yrotation Zrotation
									JOINT left_hand
									{
										OFFSET	-110.7	-3.89999	13.6
										CHANNELS 3  Xrotation Yrotation Zrotation
										JOINT left_ee
										{
											OFFSET	-80.8	-5.10001	12.1
											CHANNELS 3  Xrotation Yrotation Zrotation
											End Site
											{
												OFFSET	1	0	0
											}
										}
									}
								}
							}
						}
					}
					JOINT right_clavicle
					{
						OFFSET	43.2	22.4	-70.8
						CHANNELS 3  Xrotation Yrotation Zrotation
						JOINT right_shoulder
						{
							OFFSET	93.9	-5.79999	48.7
							CHANNELS 3  Xrotation Yrotation Zrotation
							JOINT right_elbow
							{
								OFFSET	291.4	-30.8	15.2
								CHANNELS 3  Xrotation Yrotation Zrotation
								JOINT right_lowarm_twist
								{
									OFFSET	110.7	-3.89999	13.6
									CHANNELS 3  Xrotation Yrotation Zrotation
									JOINT right_hand
									{
										OFFSET	110.7	-3.89999	13.6
										CHANNELS 3  Xrotation Yrotation Zrotation
										JOINT right_ee
										{
											OFFSET	80.8	-5.10001	12.1
											CHANNELS 3  Xrotation Yrotation Zrotation
											End Site
											{
												OFFSET	1	0	0
											}
										}
									}
								}
							}
						}
					}
				}
			}
		}
	}
	JOINT left_hip
	{
		OFFSET	-82.8	-127.5	0.300001
		CHANNELS 3  Xrotation Yrotation Zrotation
		JOINT left_knee
		{
			OFFSET	-28.2	-396.7	2.2
			CHANNELS 3  Xrotation Yrotation Zrotation
			JOINT left_ankle
			{
				OFFSET	-11.7	-411.3	35.4
				CHANNELS 3  Xrotation Yrotation Zrotation
				JOINT left_toes
				{
					OFFSET	0	-60	-88.6
					CHANNELS 3  Xrotation Yrotation Zrotation
					JOINT left_foot_ee
					{
						OFFSET	-22.5	-16.5	-42.2
						CHANNELS 3  Xrotation Yrotation Zrotation
						End Site
						{
							OFFSET	1	0	0
						}
					}
				}
			}
		}
	}
	JOINT right_hip
	{
		OFFSET	82.8	-127.5	0.300001
		CHANNELS 3  Xrotation Yrotation Zrotation
		JOINT right_knee
		{
			OFFSET	28.2	-396.7	2.2
			CHANNELS 3  Xrotation Yrotation Zrotation
			JOINT right_ankle
			{
				OFFSET	11.7	-411.3	35.4
				CHANNELS 3  Xrotation Yrotation Zrotation
				JOINT right_toes
				{
					OFFSET	0	-60	-88.6
					CHANNELS 3  Xrotation Yrotation Zrotation
					JOINT right_foot_ee
					{
						OFFSET	22.5	-16.5	-42.2
						CHANNELS 3  Xrotation Yrotation Zrotation
						End Site
						{
							OFFSET	1	0	0
						}
					}
				}
			}
		}
	}
}
MOTION
Frames: 9
Frame Time: 0.02
3574.42 741.953 -1474.73 -118.767549379 81.0031056015 114.527542126 3.25179 0.539272 2.83206 3.25618 0.358043 2.86061 3.27245 -0.0867537 2.88161 3.26105 0.369241 2.85919 -5.40993 11.2601 -5.15298 -5.17816 24.5702 -3.24579 -0.0 0.0 -0.0 -6.78729 21.4022 -7.31865 -0.281509 -25.8934 68.9595 1.23178 -31.3897 0.346131 -56.6994 -4.87536 4.98662 1.87734 7.41707 15.4873 -0.0 0.0 -0.0 12.1818 13.7117 -24.651 -12.7295 10.5207 -68.2836 0.261733 7.38764 -0.0168971 -8.80502 0.392131 -1.05407 0.798039 -0.449411 -5.52123 0.0 0.0 0.0 1.53552 23.0535 3.12627 3.31676 -0.150726 -0.486529 33.9003 3.49489 -4.29357 -40.1171 0.0 0.0 -0.0 0.0 -0.0 13.0378 15.905 0.614956 -16.4852 -0.320928 -2.50075 33.7527 6.322 4.37123 -29.765 0.0 0.0 0.0 0.0 0.0 
3575.10261453 743.091 -1469.60194604 -100.267126948 82.044009187 95.8110190465 3.13496 0.516421 2.76663 3.13915 0.339397 2.79385 3.15431 -0.100718 2.81258 3.14344 0.344563 2.79322 -6.82286 10.7983 -4.95268 -6.70562 23.6142 -2.8069 -0.0 0.0 -0.0 -6.46788 21.4753 -6.82394 1.28361 -26.8317 69.1344 1.36246 -34.0145 0.416752 -57.5129 -4.97516 5.01704 1.60005 9.2359 14.2865 -0.0 0.0 -0.0 12.4752 12.6719 -25.343 -13.2137 9.40297 -65.8455 0.189599 5.36573 -0.00888447 -7.07759 0.30247 -0.852154 0.185423 -2.74779 -2.38218 0.0 0.0 0.0 0.709032 24.2167 4.13444 4.27627 -0.199568 -0.625606 32.8083 2.1716 -4.18922 -40.1677 0.0 0.0 -0.0 0.0 -0.0 13.1128 21.0138 0.508817 -17.8257 -0.315182 -2.70634 33.1045 5.73471 4.29681 -29.7467 0.0 0.0 0.0 0.0 0.0 
3570.86987218 740.703 -1468.39153075 -82.9880118632 82.0040817975 78.6203038077 3.05049 0.436688 2.69537 3.0545 0.264355 2.71767 3.06578 -0.167245 2.72536 3.05552 0.265112 2.71759 -7.22148 10.6141 -4.11537 -7.15925 22.6852 -1.91365 -0.0 0.0 -0.0 -6.34563 22.1988 -6.42723 2.36319 -26.7557 68.6736 1.60195 -38.4312 0.558379 -57.7015 -4.99837 5.02389 1.24002 9.38734 11.9568 -0.0 0.0 -0.0 12.5597 11.9858 -25.545 -14.0183 8.11872 -64.1213 0.154789 4.38485 -0.00592591 -5.49584 0.225756 -0.665008 -0.493274 -6.14802 0.656706 0.0 0.0 0.0 -0.200014 24.5406 4.22393 6.56558 -0.325483 -0.95405 32.8246 1.25747 -4.19565 -40.0789 0.0 0.0 -0.0 0.0 -0.0 13.4266 19.9216 0.00618041 -18.3951 -0.311286 -2.79362 33.8333 3.03097 4.33373 -29.6353 0.0 0.0 0.0 0.0 0.0 
3558.8059677 738.67 -1468.13078828 -63.8493795173 81.2729008998 58.9562286738 3.08191 0.400829 2.63505 3.08574 0.232402 2.6552 3.09527 -0.18761 2.65873 3.08548 0.23449 2.65501 -5.8797 10.9775 -3.05032 -5.76632 22.5278 -1.04313 -0.0 0.0 -0.0 -6.28301 22.6767 -6.19387 1.95447 -26.3794 68.0644 1.73483 -40.6717 0.643012 -57.8579 -5.01762 5.02951 0.878114 8.19682 9.12871 -0.0 0.0 -0.0 12.4587 11.1205 -25.3183 -14.6373 5.653 -64.2915 0.171314 4.85086 -0.00725643 -4.01502 0.158653 -0.487972 -1.74486 -12.7729 5.73775 0.0 0.0 0.0 -1.18149 24.3771 4.57856 6.26289 -0.308081 -0.91091 34.8689 0.317195 -4.40417 -40.1712 0.0 0.0 -0.0 0.0 -0.0 13.7535 19.1411 0.00494474 -20.7558 -0.285889 -3.15492 37.0705 1.24302 4.62519 -28.1021 0.0 0.0 0.0 0.0 0.0 
3558.66101321 738.67 -1468.48484704 -56.7892921688 80.6313334921 51.8075286203 3.08191 0.400829 2.63505 3.08574 0.232402 2.6552 3.09527 -0.18761 2.65873 3.08548 0.23449 2.65501 -5.8797 10.9775 -3.05032 -5.76632 22.5278 -1.04313 -0.0 0.0 -0.0 -6.28301 22.6767 -6.19387 1.95447 -26.3794 68.0644 1.73483 -40.6717 0.643012 -57.8579 -5.01762 5.02951 0.878114 8.19682 9.12871 -0.0 0.0 -0.0 12.4587 11.1205 -25.3183 -14.6373 5.653 -64.2915 0.171314 4.85086 -0.00725643 -4.01502 0.158653 -0.487972 -1.74486 -12.7729 5.73775 0.0 0.0 0.0 -1.18149 24.3771 4.57856 6.26289 -0.308081 -0.91091 34.8689 0.317195 -4.40417 -40.1712 0.0 0.0 -0.0 0.0 -0.0 13.7535 19.1411 0.00494474 -20.7558 -0.285889 -3.15492 37.0705 1.24302 4.62519 -28.1021 0.0 0.0 0.0 0.0 0.0 
3558.49819108 738.67 -1468.9124747 -49.637349115 79.703290326 44.5494820663 3.08191 0.400829 2.63505 3.08574 0.232402 2.6552 3.09527 -0.18761 2.65873 3.08548 0.23449 2.65501 -5.8797 10.9775 -3.05032 -5.76632 22.5278 -1.04313 -0.0 0.0 -0.0 -6.28301 22.6767 -6.19387 1.95447 -26.3794 68.0644 1.73483 -40.6717 0.643012 -57.8579 -5.01762 5.02951 0.878114 8.19682 9.12871 -0.0 0.0 -0.0 12.4587 11.1205 -25.3183 -14.6373 5.653 -64.2915 0.171314 4.85086 -0.00725643 -4.01502 0.158653 -0.487972 -1.74486 -12.7729 5.73775 0.0 0.0 0.0 -1.18149 24.3771 4.57856 6.26289 -0.308081 -0.91091 34.8689 0.317195 -4.40417 -40.1712 0.0 0.0 -0.0 0.0 -0.0 13.7535 19.1411 0.00494474 -20.7558 -0.285889 -3.15492 37.0705 1.24302 4.62519 -28.1021 0.0 0.0 0.0 0.0 0.0 
3558.33951847 738.67 -1469.36663223 -43.4777887129 78.5834815429 38.2781872046 3.08191 0.400829 2.63505 3.08574 0.232402 2.6552 3.09527 -0.18761 2.65873 3.08548 0.23449 2.65501 -5.8797 10.9775 -3.05032 -5.76632 22.5278 -1.04313 -0.0 0.0 -0.0 -6.28301 22.6767 -6.19387 1.95447 -26.3794 68.0644 1.73483 -40.6717 0.643012 -57.8579 -5.01762 5.02951 0.878114 8.19682 9.12871 -0.0 0.0 -0.0 12.4587 11.1205 -25.3183 -14.6373 5.653 -64.2915 0.171314 4.85086 -0.00725643 -4.01502 0.158653 -0.487972 -1.74486 -12.7729 5.73775 0.0 0.0 0.0 -1.18149 24.3771 4.57856 6.26289 -0.308081 -0.91091 34.8689 0.317195 -4.40417 -40.1712 0.0 0.0 -0.0 0.0 -0.0 13.7535 19.1411 0.00494474 -20.7558 -0.285889 -3.15492 37.0705 1.24302 4.62519 -28.1021 0.0 0.0 0.0 0.0 0.0 
3558.15946494 738.67 -1469.94015663 -37.3753150854 77.0344476552 32.0357659148 3.08191 0.400829 2.63505 3.08574 0.232402 2.6552 3.09527 -0.18761 2.65873 3.08548 0.23449 2.65501 -5.8797 10.9775 -3.05032 -5.76632 22.5278 -1.04313 -0.0 0.0 -0.0 -6.28301 22.6767 -6.19387 1.95447 -26.3794 68.0644 1.73483 -40.6717 0.643012 -57.8579 -5.01762 5.02951 0.878114 8.19682 9.12871 -0.0 0.0 -0.0 12.4587 11.1205 -25.3183 -14.6373 5.653 -64.2915 0.171314 4.85086 -0.00725643 -4.01502 0.158653 -0.487972 -1.74486 -12.7729 5.73775 0.0 0.0 0.0 -1.18149 24.3771 4.57856 6.26289 -0.308081 -0.91091 34.8689 0.317195 -4.40417 -40.1712 0.0 0.0 -0.0 0.0 -0.0 13.7535 19.1411 0.00494474 -20.7558 -0.285889 -3.15492 37.0705 1.24302 4.62519 -28.1021 0.0 0.0 0.0 0.0 0.0 
3557.98704517 738.67 -1470.57000055 -32.2691907386 75.2205026972 26.7770993331 3.08191 0.400829 2.63505 3.08574 0.232402 2.6552 3.09527 -0.18761 2.65873 3.08548 0.23449 2.65501 -5.8797 10.9775 -3.05032 -5.76632 22.5278 -1.04313 -0.0 0.0 -0.0 -6.28301 22.6767 -6.19387 1.95447 -26.3794 68.0644 1.73483 -40.6717 0.643012 -57.8579 -5.01762 5.02951 0.878114 8.19682 9.12871 -0.0 0.0 -0.0 12.4587 11.1205 -25.3183 -14.6373 5.653 -64.2915 0.171314 4.85086 -0.00725643 -4.01502 0.158653 -0.487972 -1.74486 -12.7729 5.73775 0.0 0.0 0.0 -1.18149 24.3771 4.57856 6.26289 -0.308081 -0.91091 34.8689 0.317195 -4.40417 -40.1712 0.0 0.0 -0.0 0.0 -0.0 13.7535 19.1411 0.00494474 -20.7558 -0.285889 -3.15492 37.0705 1.24302 4.62519 -28.1021 0.0 0.0 0.0 0.0 0.0 
